<svg width="198" height="46" viewBox="0 0 198 46" fill="none" xmlns="http://www.w3.org/2000/svg">
<rect x="0.890625" width="196.875" height="46" rx="23" fill="#D9E7CB"/>
<g clip-path="url(#clip0_1_154)">
<path d="M37.1426 16.077C38.0856 16.077 39.2676 15.406 39.9726 14.51C40.6096 13.7 41.0746 12.566 41.0746 11.434C41.0746 11.28 41.0606 11.126 41.0346 11C39.9846 11.042 38.7236 11.741 37.9666 12.678C37.3686 13.392 36.8246 14.51 36.8246 15.658C36.8246 15.825 36.8506 15.993 36.8646 16.048C36.9306 16.063 37.0366 16.077 37.1426 16.077ZM33.8226 33C35.1106 33 35.6826 32.09 37.2886 32.09C38.9226 32.09 39.2816 32.972 40.7156 32.972C42.1236 32.972 43.0656 31.602 43.9556 30.259C44.9526 28.72 45.3636 27.209 45.3906 27.139C45.2976 27.112 42.6006 25.951 42.6006 22.692C42.6006 19.867 44.7266 18.594 44.8456 18.496C43.4386 16.371 41.2996 16.315 40.7156 16.315C39.1356 16.315 37.8466 17.322 37.0366 17.322C36.1596 17.322 35.0046 16.371 33.6366 16.371C31.0336 16.371 28.3906 18.636 28.3906 22.916C28.3906 25.573 29.3736 28.385 30.5816 30.203C31.6176 31.74 32.5216 33 33.8226 33Z" fill="#224722"/>
</g>
<path d="M55.1307 29H53.3764L58.4503 15.1818H60.1776L65.2514 29H63.4972L59.3679 17.3679H59.2599L55.1307 29ZM55.7784 23.6023H62.8494V25.0866H55.7784V23.6023ZM67.1879 32.8864V18.6364H68.7262V20.2827H68.9151C69.0321 20.1027 69.194 19.8733 69.4009 19.5945C69.6123 19.3111 69.9137 19.0592 70.305 18.8388C70.7009 18.6139 71.2362 18.5014 71.9109 18.5014C72.7835 18.5014 73.5527 18.7196 74.2184 19.1559C74.8841 19.5922 75.4036 20.2107 75.777 21.0114C76.1503 21.812 76.337 22.7566 76.337 23.8452C76.337 24.9427 76.1503 25.8941 75.777 26.6992C75.4036 27.4999 74.8864 28.1206 74.2251 28.5614C73.5639 28.9978 72.8015 29.2159 71.9379 29.2159C71.2721 29.2159 70.7391 29.1057 70.3388 28.8853C69.9384 28.6604 69.6303 28.4062 69.4144 28.1229C69.1985 27.835 69.0321 27.5966 68.9151 27.4077H68.7802V32.8864H67.1879ZM68.7532 23.8182C68.7532 24.6009 68.8679 25.2913 69.0973 25.8896C69.3267 26.4833 69.6618 26.9489 70.1026 27.2862C70.5434 27.6191 71.0832 27.7855 71.7219 27.7855C72.3877 27.7855 72.9432 27.6101 73.3885 27.2592C73.8383 26.9039 74.1757 26.4271 74.4006 25.8288C74.63 25.2261 74.7447 24.5559 74.7447 23.8182C74.7447 23.0895 74.6322 22.4328 74.4073 21.848C74.1869 21.2588 73.8518 20.7932 73.402 20.4513C72.9567 20.105 72.3967 19.9318 71.7219 19.9318C71.0742 19.9318 70.5299 20.096 70.0891 20.4244C69.6483 20.7482 69.3155 21.2025 69.0906 21.7873C68.8656 22.3675 68.7532 23.0445 68.7532 23.8182ZM78.766 32.8864V18.6364H80.3043V20.2827H80.4933C80.6102 20.1027 80.7721 19.8733 80.979 19.5945C81.1905 19.3111 81.4918 19.0592 81.8832 18.8388C82.279 18.6139 82.8143 18.5014 83.489 18.5014C84.3616 18.5014 85.1308 18.7196 85.7965 19.1559C86.4622 19.5922 86.9818 20.2107 87.3551 21.0114C87.7285 21.812 87.9151 22.7566 87.9151 23.8452C87.9151 24.9427 87.7285 25.8941 87.3551 26.6992C86.9818 27.4999 86.4645 28.1206 85.8033 28.5614C85.142 28.9978 84.3796 29.2159 83.516 29.2159C82.8503 29.2159 82.3172 29.1057 81.9169 28.8853C81.5166 28.6604 81.2085 28.4062 80.9925 28.1229C80.7766 27.835 80.6102 27.5966 80.4933 27.4077H80.3583V32.8864H78.766ZM80.3313 23.8182C80.3313 24.6009 80.446 25.2913 80.6754 25.8896C80.9048 26.4833 81.2399 26.9489 81.6808 27.2862C82.1216 27.6191 82.6613 27.7855 83.3001 27.7855C83.9658 27.7855 84.5213 27.6101 84.9666 27.2592C85.4164 26.9039 85.7538 26.4271 85.9787 25.8288C86.2081 25.2261 86.3228 24.5559 86.3228 23.8182C86.3228 23.0895 86.2103 22.4328 85.9854 21.848C85.765 21.2588 85.4299 20.7932 84.9801 20.4513C84.5348 20.105 83.9748 19.9318 83.3001 19.9318C82.6523 19.9318 82.1081 20.096 81.6673 20.4244C81.2264 20.7482 80.8936 21.2025 80.6687 21.7873C80.4438 22.3675 80.3313 23.0445 80.3313 23.8182ZM103.029 20.9574L101.598 21.3622C101.508 21.1238 101.376 20.8922 101.2 20.6673C101.029 20.4379 100.795 20.2489 100.499 20.1005C100.202 19.9521 99.8216 19.8778 99.3583 19.8778C98.7241 19.8778 98.1955 20.024 97.7727 20.3164C97.3544 20.6043 97.1452 20.9709 97.1452 21.4162C97.1452 21.812 97.2892 22.1246 97.5771 22.354C97.8649 22.5835 98.3147 22.7746 98.9265 22.9276L100.465 23.3054C101.391 23.5303 102.082 23.8744 102.536 24.3377C102.991 24.7965 103.218 25.388 103.218 26.1122C103.218 26.706 103.047 27.2367 102.705 27.7045C102.368 28.1723 101.895 28.5412 101.288 28.8111C100.681 29.081 99.9746 29.2159 99.1694 29.2159C98.1123 29.2159 97.2375 28.9865 96.5447 28.5277C95.852 28.0689 95.4135 27.3987 95.229 26.517L96.7404 26.1392C96.8844 26.697 97.1565 27.1153 97.5568 27.3942C97.9616 27.6731 98.4902 27.8125 99.1424 27.8125C99.8846 27.8125 100.474 27.6551 100.91 27.3402C101.351 27.0208 101.571 26.6385 101.571 26.1932C101.571 25.8333 101.445 25.532 101.194 25.2891C100.942 25.0417 100.555 24.8572 100.033 24.7358L98.3058 24.331C97.3567 24.1061 96.6594 23.7575 96.2141 23.2852C95.7733 22.8084 95.5529 22.2124 95.5529 21.4972C95.5529 20.9124 95.7171 20.3951 96.0455 19.9453C96.3783 19.4955 96.8304 19.1424 97.4016 18.886C97.9774 18.6296 98.6296 18.5014 99.3583 18.5014C100.384 18.5014 101.189 18.7263 101.774 19.1761C102.363 19.6259 102.781 20.2197 103.029 20.9574ZM110.122 18.6364V19.9858H104.751V18.6364H110.122ZM106.316 16.1534H107.909V26.0312C107.909 26.4811 107.974 26.8184 108.104 27.0433C108.239 27.2637 108.41 27.4122 108.617 27.4886C108.829 27.5606 109.051 27.5966 109.285 27.5966C109.46 27.5966 109.604 27.5876 109.717 27.5696C109.829 27.5471 109.919 27.5291 109.987 27.5156L110.311 28.946C110.203 28.9865 110.052 29.027 109.859 29.0675C109.665 29.1125 109.42 29.1349 109.123 29.1349C108.673 29.1349 108.233 29.0382 107.801 28.8448C107.373 28.6514 107.018 28.3568 106.735 27.9609C106.456 27.5651 106.316 27.0658 106.316 26.4631V16.1534ZM116.616 29.2159C115.68 29.2159 114.859 28.9933 114.153 28.5479C113.451 28.1026 112.903 27.4796 112.507 26.679C112.116 25.8783 111.92 24.9427 111.92 23.8722C111.92 22.7926 112.116 21.8503 112.507 21.0451C112.903 20.2399 113.451 19.6147 114.153 19.1694C114.859 18.7241 115.68 18.5014 116.616 18.5014C117.551 18.5014 118.37 18.7241 119.072 19.1694C119.778 19.6147 120.327 20.2399 120.718 21.0451C121.114 21.8503 121.312 22.7926 121.312 23.8722C121.312 24.9427 121.114 25.8783 120.718 26.679C120.327 27.4796 119.778 28.1026 119.072 28.5479C118.37 28.9933 117.551 29.2159 116.616 29.2159ZM116.616 27.7855C117.327 27.7855 117.911 27.6033 118.37 27.239C118.829 26.8746 119.169 26.3956 119.389 25.8018C119.609 25.2081 119.72 24.5649 119.72 23.8722C119.72 23.1795 119.609 22.534 119.389 21.9357C119.169 21.3375 118.829 20.8539 118.37 20.4851C117.911 20.1162 117.327 19.9318 116.616 19.9318C115.905 19.9318 115.32 20.1162 114.862 20.4851C114.403 20.8539 114.063 21.3375 113.843 21.9357C113.622 22.534 113.512 23.1795 113.512 23.8722C113.512 24.5649 113.622 25.2081 113.843 25.8018C114.063 26.3956 114.403 26.8746 114.862 27.239C115.32 27.6033 115.905 27.7855 116.616 27.7855ZM123.743 29V18.6364H125.281V20.2017H125.389C125.578 19.6889 125.92 19.2728 126.414 18.9535C126.909 18.6341 127.467 18.4744 128.088 18.4744C128.205 18.4744 128.351 18.4767 128.526 18.4812C128.702 18.4857 128.834 18.4924 128.924 18.5014V20.1207C128.87 20.1072 128.747 20.087 128.553 20.06C128.364 20.0285 128.164 20.0128 127.953 20.0128C127.449 20.0128 126.999 20.1185 126.603 20.3299C126.212 20.5368 125.902 20.8247 125.672 21.1935C125.447 21.5579 125.335 21.974 125.335 22.4418V29H123.743ZM134.842 29.2159C133.843 29.2159 132.982 28.9955 132.257 28.5547C131.538 28.1094 130.982 27.4886 130.591 26.6925C130.204 25.8918 130.011 24.9607 130.011 23.8991C130.011 22.8376 130.204 21.902 130.591 21.0923C130.982 20.2782 131.527 19.6439 132.224 19.1896C132.925 18.7308 133.744 18.5014 134.68 18.5014C135.219 18.5014 135.752 18.5914 136.279 18.7713C136.805 18.9512 137.284 19.2436 137.716 19.6484C138.148 20.0488 138.492 20.5795 138.748 21.2408C139.005 21.902 139.133 22.7161 139.133 23.6832V24.358H131.144V22.9815H137.513C137.513 22.3968 137.397 21.875 137.163 21.4162C136.933 20.9574 136.605 20.5953 136.178 20.3299C135.755 20.0645 135.255 19.9318 134.68 19.9318C134.045 19.9318 133.497 20.0893 133.033 20.4041C132.575 20.7145 132.221 21.1193 131.974 21.6186C131.727 22.1179 131.603 22.6532 131.603 23.2244V24.142C131.603 24.9247 131.738 25.5882 132.008 26.1325C132.282 26.6722 132.662 27.0838 133.148 27.3672C133.634 27.6461 134.198 27.7855 134.842 27.7855C135.26 27.7855 135.638 27.727 135.975 27.6101C136.317 27.4886 136.612 27.3087 136.859 27.0703C137.106 26.8274 137.298 26.526 137.433 26.1662L138.971 26.598C138.809 27.1198 138.537 27.5786 138.154 27.9744C137.772 28.3658 137.3 28.6716 136.738 28.892C136.175 29.108 135.543 29.2159 134.842 29.2159Z" fill="#224722"/>
<path d="M145.3 26.6989V24.5192L150.766 15.9091H152.645V18.9261H151.533L148.087 24.3786V24.4808H155.854V26.6989H145.3ZM151.584 29V26.0341L151.635 25.0689V15.9091H154.23V29H151.584ZM159.069 29.1662C158.647 29.1662 158.285 29.017 157.982 28.7188C157.684 28.4162 157.535 28.054 157.535 27.6321C157.535 27.2145 157.684 26.8565 157.982 26.5582C158.285 26.2599 158.647 26.1108 159.069 26.1108C159.478 26.1108 159.836 26.2599 160.143 26.5582C160.45 26.8565 160.603 27.2145 160.603 27.6321C160.603 27.9134 160.531 28.1712 160.386 28.4055C160.245 28.6357 160.06 28.821 159.83 28.9616C159.599 29.098 159.346 29.1662 159.069 29.1662ZM167.169 29.179C166.185 29.179 165.309 29.0192 164.542 28.6996C163.779 28.3757 163.181 27.9347 162.746 27.3764C162.311 26.8182 162.094 26.1854 162.094 25.478C162.094 24.9325 162.218 24.4318 162.465 23.9759C162.716 23.5156 163.057 23.1342 163.487 22.8317C163.918 22.5249 164.399 22.3288 164.932 22.2436V22.1541C164.233 22.0135 163.666 21.6747 163.232 21.1378C162.797 20.5966 162.58 19.968 162.58 19.2521C162.58 18.5746 162.778 17.9716 163.174 17.4432C163.57 16.9105 164.114 16.4929 164.804 16.1903C165.499 15.8835 166.287 15.7301 167.169 15.7301C168.051 15.7301 168.838 15.8835 169.528 16.1903C170.222 16.4972 170.768 16.9169 171.164 17.4496C171.561 17.978 171.761 18.5788 171.765 19.2521C171.761 19.9723 171.539 20.6009 171.1 21.1378C170.661 21.6747 170.099 22.0135 169.413 22.1541V22.2436C169.937 22.3288 170.412 22.5249 170.838 22.8317C171.269 23.1342 171.61 23.5156 171.861 23.9759C172.117 24.4318 172.247 24.9325 172.251 25.478C172.247 26.1854 172.027 26.8182 171.593 27.3764C171.158 27.9347 170.557 28.3757 169.79 28.6996C169.027 29.0192 168.154 29.179 167.169 29.179ZM167.169 27.1463C167.608 27.1463 167.992 27.0675 168.32 26.9098C168.648 26.7479 168.904 26.5263 169.087 26.245C169.274 25.9595 169.368 25.6314 169.368 25.2607C169.368 24.8814 169.272 24.5469 169.08 24.2571C168.889 23.9631 168.629 23.733 168.301 23.5668C167.972 23.3963 167.595 23.3111 167.169 23.3111C166.747 23.3111 166.37 23.3963 166.038 23.5668C165.705 23.733 165.443 23.9631 165.252 24.2571C165.064 24.5469 164.97 24.8814 164.97 25.2607C164.97 25.6314 165.062 25.9595 165.245 26.245C165.428 26.5263 165.686 26.7479 166.019 26.9098C166.351 27.0675 166.735 27.1463 167.169 27.1463ZM167.169 21.2976C167.536 21.2976 167.862 21.223 168.147 21.0739C168.433 20.9247 168.656 20.718 168.818 20.4538C168.98 20.1896 169.061 19.8849 169.061 19.5398C169.061 19.1989 168.98 18.9006 168.818 18.6449C168.656 18.3849 168.435 18.1825 168.154 18.0376C167.872 17.8885 167.544 17.8139 167.169 17.8139C166.798 17.8139 166.47 17.8885 166.185 18.0376C165.899 18.1825 165.676 18.3849 165.514 18.6449C165.356 18.9006 165.277 19.1989 165.277 19.5398C165.277 19.8849 165.358 20.1896 165.52 20.4538C165.682 20.718 165.906 20.9247 166.191 21.0739C166.477 21.223 166.803 21.2976 167.169 21.2976Z" fill="#224722"/>
<defs>
<clipPath id="clip0_1_154">
<rect width="24" height="24" fill="white" transform="translate(24.8906 11)"/>
</clipPath>
</defs>
</svg>
