<svg width="217" height="46" viewBox="0 0 217 46" fill="none" xmlns="http://www.w3.org/2000/svg">
<rect x="0.765625" width="215.344" height="46" rx="23" fill="#D9E7CB"/>
<g clip-path="url(#clip0_1_160)">
<path d="M47.7656 23.257C47.7656 29.534 43.3976 34 36.9456 34C30.7606 34 25.7656 29.085 25.7656 23C25.7656 16.915 30.7606 12 36.9456 12C39.9576 12 42.4906 13.087 44.4426 14.879L41.3996 17.757C37.4196 13.978 30.0166 16.817 30.0166 23C30.0166 26.837 33.1316 29.946 36.9466 29.946C41.3726 29.946 43.0316 26.823 43.2936 25.204H36.9456V21.421H47.5896C47.6936 21.984 47.7656 22.525 47.7656 23.257Z" fill="#224722"/>
</g>
<path d="M63.8849 19.5C63.7365 19.0457 63.5408 18.6386 63.2979 18.2788C63.0595 17.9144 62.7739 17.604 62.4411 17.3477C62.1127 17.0913 61.7393 16.8956 61.321 16.7607C60.9027 16.6257 60.4439 16.5582 59.9446 16.5582C59.1259 16.5582 58.3815 16.7696 57.7113 17.1925C57.0411 17.6153 56.508 18.2383 56.1122 19.0614C55.7164 19.8846 55.5185 20.8944 55.5185 22.0909C55.5185 23.2874 55.7186 24.2972 56.119 25.1204C56.5193 25.9435 57.0613 26.5665 57.745 26.9893C58.4287 27.4122 59.1979 27.6236 60.0526 27.6236C60.8442 27.6236 61.5414 27.4549 62.1442 27.1175C62.7514 26.7757 63.2237 26.2944 63.5611 25.6737C63.9029 25.0484 64.0739 24.313 64.0739 23.4673L64.5866 23.5753H60.4304V22.0909H65.6932V23.5753C65.6932 24.7133 65.4503 25.7029 64.9645 26.544C64.4832 27.3852 63.8175 28.0374 62.9673 28.5007C62.1217 28.9595 61.1501 29.1889 60.0526 29.1889C58.8291 29.1889 57.754 28.901 56.8274 28.3253C55.9053 27.7495 55.1856 26.9309 54.6683 25.8693C54.1555 24.8078 53.8991 23.5483 53.8991 22.0909C53.8991 20.9979 54.0453 20.015 54.3377 19.1424C54.6346 18.2653 55.0529 17.5186 55.5927 16.9023C56.1325 16.2861 56.7712 15.8138 57.5089 15.4854C58.2466 15.1571 59.0585 14.9929 59.9446 14.9929C60.6733 14.9929 61.3525 15.1031 61.9822 15.3235C62.6165 15.5394 63.181 15.8475 63.6758 16.2479C64.1751 16.6437 64.5911 17.1183 64.924 17.6715C65.2569 18.2203 65.4863 18.8298 65.6122 19.5H63.8849ZM72.5534 29.2159C71.6177 29.2159 70.7968 28.9933 70.0906 28.5479C69.3889 28.1026 68.8402 27.4796 68.4443 26.679C68.053 25.8783 67.8573 24.9427 67.8573 23.8722C67.8573 22.7926 68.053 21.8503 68.4443 21.0451C68.8402 20.2399 69.3889 19.6147 70.0906 19.1694C70.7968 18.7241 71.6177 18.5014 72.5534 18.5014C73.489 18.5014 74.3076 18.7241 75.0093 19.1694C75.7155 19.6147 76.2643 20.2399 76.6556 21.0451C77.0515 21.8503 77.2494 22.7926 77.2494 23.8722C77.2494 24.9427 77.0515 25.8783 76.6556 26.679C76.2643 27.4796 75.7155 28.1026 75.0093 28.5479C74.3076 28.9933 73.489 29.2159 72.5534 29.2159ZM72.5534 27.7855C73.2641 27.7855 73.8488 27.6033 74.3076 27.239C74.7664 26.8746 75.106 26.3956 75.3264 25.8018C75.5468 25.2081 75.657 24.5649 75.657 23.8722C75.657 23.1795 75.5468 22.534 75.3264 21.9357C75.106 21.3375 74.7664 20.8539 74.3076 20.4851C73.8488 20.1162 73.2641 19.9318 72.5534 19.9318C71.8427 19.9318 71.2579 20.1162 70.7991 20.4851C70.3403 20.8539 70.0007 21.3375 69.7803 21.9357C69.5599 22.534 69.4497 23.1795 69.4497 23.8722C69.4497 24.5649 69.5599 25.2081 69.7803 25.8018C70.0007 26.3956 70.3403 26.8746 70.7991 27.239C71.2579 27.6033 71.8427 27.7855 72.5534 27.7855ZM83.8903 29.2159C82.9547 29.2159 82.1338 28.9933 81.4276 28.5479C80.7259 28.1026 80.1771 27.4796 79.7812 26.679C79.3899 25.8783 79.1942 24.9427 79.1942 23.8722C79.1942 22.7926 79.3899 21.8503 79.7812 21.0451C80.1771 20.2399 80.7259 19.6147 81.4276 19.1694C82.1338 18.7241 82.9547 18.5014 83.8903 18.5014C84.8259 18.5014 85.6445 18.7241 86.3462 19.1694C87.0524 19.6147 87.6012 20.2399 87.9925 21.0451C88.3884 21.8503 88.5863 22.7926 88.5863 23.8722C88.5863 24.9427 88.3884 25.8783 87.9925 26.679C87.6012 27.4796 87.0524 28.1026 86.3462 28.5479C85.6445 28.9933 84.8259 29.2159 83.8903 29.2159ZM83.8903 27.7855C84.601 27.7855 85.1857 27.6033 85.6445 27.239C86.1033 26.8746 86.4429 26.3956 86.6634 25.8018C86.8838 25.2081 86.994 24.5649 86.994 23.8722C86.994 23.1795 86.8838 22.534 86.6634 21.9357C86.4429 21.3375 86.1033 20.8539 85.6445 20.4851C85.1857 20.1162 84.601 19.9318 83.8903 19.9318C83.1796 19.9318 82.5948 20.1162 82.136 20.4851C81.6772 20.8539 81.3376 21.3375 81.1172 21.9357C80.8968 22.534 80.7866 23.1795 80.7866 23.8722C80.7866 24.5649 80.8968 25.2081 81.1172 25.8018C81.3376 26.3956 81.6772 26.8746 82.136 27.239C82.5948 27.6033 83.1796 27.7855 83.8903 27.7855ZM95.2002 33.1023C94.431 33.1023 93.7698 33.0033 93.2165 32.8054C92.6633 32.612 92.2022 32.3556 91.8334 32.0362C91.469 31.7214 91.1789 31.384 90.963 31.0241L92.2314 30.1335C92.3754 30.3224 92.5576 30.5384 92.778 30.7812C92.9984 31.0286 93.2997 31.2423 93.6821 31.4222C94.0689 31.6067 94.575 31.6989 95.2002 31.6989C96.0368 31.6989 96.7273 31.4964 97.2716 31.0916C97.8158 30.6868 98.088 30.0526 98.088 29.1889V27.0838H97.953C97.8361 27.2727 97.6697 27.5066 97.4537 27.7855C97.2423 28.0599 96.9365 28.305 96.5361 28.521C96.1403 28.7324 95.605 28.8381 94.9303 28.8381C94.0937 28.8381 93.3425 28.6402 92.6768 28.2443C92.0155 27.8485 91.4915 27.2727 91.1047 26.517C90.7223 25.7614 90.5312 24.8437 90.5312 23.7642C90.5312 22.7027 90.7178 21.7783 91.0912 20.9911C91.4645 20.1995 91.984 19.5877 92.6498 19.1559C93.3155 18.7196 94.0847 18.5014 94.9573 18.5014C95.632 18.5014 96.1673 18.6139 96.5631 18.8388C96.9635 19.0592 97.2693 19.3111 97.4807 19.5945C97.6966 19.8733 97.8631 20.1027 97.98 20.2827H98.142V18.6364H99.6803V29.2969C99.6803 30.1875 99.4779 30.9117 99.0731 31.4695C98.6727 32.0317 98.133 32.4433 97.4537 32.7042C96.779 32.9696 96.0278 33.1023 95.2002 33.1023ZM95.1462 27.4077C95.7849 27.4077 96.3247 27.2615 96.7655 26.9691C97.2064 26.6767 97.5415 26.2562 97.7709 25.7074C98.0003 25.1586 98.115 24.5019 98.115 23.7372C98.115 22.9905 98.0025 22.3316 97.7776 21.7603C97.5527 21.189 97.2198 20.7415 96.779 20.4176C96.3382 20.0937 95.7939 19.9318 95.1462 19.9318C94.4715 19.9318 93.9092 20.1027 93.4594 20.4446C93.0141 20.7865 92.679 21.2453 92.4541 21.821C92.2337 22.3968 92.1235 23.0355 92.1235 23.7372C92.1235 24.4569 92.2359 25.0934 92.4608 25.6467C92.6903 26.1954 93.0276 26.6272 93.4729 26.9421C93.9227 27.2525 94.4805 27.4077 95.1462 27.4077ZM104.187 15.1818V29H102.595V15.1818H104.187ZM111.449 29.2159C110.45 29.2159 109.589 28.9955 108.865 28.5547C108.145 28.1094 107.59 27.4886 107.198 26.6925C106.811 25.8918 106.618 24.9607 106.618 23.8991C106.618 22.8376 106.811 21.902 107.198 21.0923C107.59 20.2782 108.134 19.6439 108.831 19.1896C109.533 18.7308 110.352 18.5014 111.287 18.5014C111.827 18.5014 112.36 18.5914 112.886 18.7713C113.412 18.9512 113.892 19.2436 114.323 19.6484C114.755 20.0488 115.099 20.5795 115.356 21.2408C115.612 21.902 115.74 22.7161 115.74 23.6832V24.358H107.752V22.9815H114.121C114.121 22.3968 114.004 21.875 113.77 21.4162C113.541 20.9574 113.212 20.5953 112.785 20.3299C112.362 20.0645 111.863 19.9318 111.287 19.9318C110.653 19.9318 110.104 20.0893 109.641 20.4041C109.182 20.7145 108.829 21.1193 108.581 21.6186C108.334 22.1179 108.21 22.6532 108.21 23.2244V24.142C108.21 24.9247 108.345 25.5882 108.615 26.1325C108.89 26.6722 109.27 27.0838 109.756 27.3672C110.241 27.6461 110.806 27.7855 111.449 27.7855C111.867 27.7855 112.245 27.727 112.583 27.6101C112.924 27.4886 113.219 27.3087 113.466 27.0703C113.714 26.8274 113.905 26.526 114.04 26.1662L115.578 26.598C115.416 27.1198 115.144 27.5786 114.762 27.9744C114.38 28.3658 113.907 28.6716 113.345 28.892C112.783 29.108 112.151 29.2159 111.449 29.2159ZM123.506 32.8864V18.6364H125.045V20.2827H125.233C125.35 20.1027 125.512 19.8733 125.719 19.5945C125.931 19.3111 126.232 19.0592 126.623 18.8388C127.019 18.6139 127.555 18.5014 128.229 18.5014C129.102 18.5014 129.871 18.7196 130.537 19.1559C131.202 19.5922 131.722 20.2107 132.095 21.0114C132.469 21.812 132.655 22.7566 132.655 23.8452C132.655 24.9427 132.469 25.8941 132.095 26.6992C131.722 27.4999 131.205 28.1206 130.544 28.5614C129.882 28.9978 129.12 29.2159 128.256 29.2159C127.59 29.2159 127.057 29.1057 126.657 28.8853C126.257 28.6604 125.949 28.4062 125.733 28.1229C125.517 27.835 125.35 27.5966 125.233 27.4077H125.099V32.8864H123.506ZM125.072 23.8182C125.072 24.6009 125.186 25.2913 125.416 25.8896C125.645 26.4833 125.98 26.9489 126.421 27.2862C126.862 27.6191 127.402 27.7855 128.04 27.7855C128.706 27.7855 129.262 27.6101 129.707 27.2592C130.157 26.9039 130.494 26.4271 130.719 25.8288C130.948 25.2261 131.063 24.5559 131.063 23.8182C131.063 23.0895 130.951 22.4328 130.726 21.848C130.505 21.2588 130.17 20.7932 129.72 20.4513C129.275 20.105 128.715 19.9318 128.04 19.9318C127.393 19.9318 126.848 20.096 126.407 20.4244C125.967 20.7482 125.634 21.2025 125.409 21.7873C125.184 22.3675 125.072 23.0445 125.072 23.8182ZM136.677 15.1818V29H135.084V15.1818H136.677ZM142.643 29.2429C141.986 29.2429 141.39 29.1192 140.855 28.8718C140.32 28.6199 139.895 28.2578 139.58 27.7855C139.265 27.3087 139.107 26.733 139.107 26.0582C139.107 25.4645 139.224 24.9832 139.458 24.6143C139.692 24.241 140.005 23.9486 140.396 23.7372C140.787 23.5258 141.219 23.3684 141.691 23.2649C142.168 23.157 142.647 23.0715 143.129 23.0085C143.758 22.9276 144.269 22.8668 144.66 22.8263C145.056 22.7814 145.344 22.7071 145.524 22.6037C145.708 22.5002 145.801 22.3203 145.801 22.0639V22.0099C145.801 21.3442 145.618 20.8269 145.254 20.4581C144.894 20.0893 144.348 19.9048 143.614 19.9048C142.854 19.9048 142.258 20.0713 141.826 20.4041C141.395 20.737 141.091 21.0923 140.916 21.4702L139.404 20.9304C139.674 20.3007 140.034 19.8104 140.484 19.4595C140.938 19.1042 141.433 18.8568 141.968 18.7173C142.508 18.5734 143.039 18.5014 143.56 18.5014C143.893 18.5014 144.276 18.5419 144.707 18.6229C145.144 18.6993 145.564 18.859 145.969 19.1019C146.379 19.3448 146.718 19.7114 146.988 20.2017C147.258 20.692 147.393 21.3487 147.393 22.1719V29H145.801V27.5966H145.72C145.612 27.8215 145.432 28.0621 145.18 28.3185C144.928 28.5749 144.593 28.7931 144.174 28.973C143.756 29.1529 143.246 29.2429 142.643 29.2429ZM142.886 27.8125C143.515 27.8125 144.046 27.6888 144.478 27.4414C144.914 27.194 145.243 26.8746 145.463 26.4833C145.688 26.092 145.801 25.6804 145.801 25.2486V23.7912C145.733 23.8722 145.585 23.9464 145.355 24.0138C145.13 24.0768 144.869 24.133 144.573 24.1825C144.28 24.2275 143.995 24.268 143.716 24.304C143.441 24.3355 143.219 24.3625 143.048 24.3849C142.634 24.4389 142.247 24.5266 141.887 24.6481C141.532 24.765 141.244 24.9427 141.024 25.1811C140.808 25.415 140.7 25.7344 140.7 26.1392C140.7 26.6925 140.904 27.1108 141.314 27.3942C141.727 27.6731 142.252 27.8125 142.886 27.8125ZM150.954 32.8864C150.684 32.8864 150.443 32.8639 150.232 32.8189C150.02 32.7784 149.874 32.7379 149.793 32.6974L150.198 31.294C150.585 31.393 150.927 31.429 151.224 31.402C151.52 31.375 151.784 31.2423 152.013 31.0039C152.247 30.77 152.461 30.3899 152.654 29.8636L152.951 29.054L149.118 18.6364H150.846L153.706 26.8949H153.814L156.675 18.6364H158.403L154.003 30.5114C153.805 31.0466 153.56 31.4897 153.268 31.8406C152.976 32.1959 152.636 32.459 152.249 32.63C151.867 32.8009 151.435 32.8864 150.954 32.8864Z" fill="#224722"/>
<path d="M163.722 26.6989V24.5192L169.188 15.9091H171.067V18.9261H169.955L166.509 24.3786V24.4808H174.276V26.6989H163.722ZM170.006 29V26.0341L170.057 25.0689V15.9091H172.652V29H170.006ZM177.491 29.1662C177.069 29.1662 176.707 29.017 176.404 28.7188C176.106 28.4162 175.957 28.054 175.957 27.6321C175.957 27.2145 176.106 26.8565 176.404 26.5582C176.707 26.2599 177.069 26.1108 177.491 26.1108C177.9 26.1108 178.258 26.2599 178.565 26.5582C178.871 26.8565 179.025 27.2145 179.025 27.6321C179.025 27.9134 178.952 28.1712 178.808 28.4055C178.667 28.6357 178.482 28.821 178.251 28.9616C178.021 29.098 177.768 29.1662 177.491 29.1662ZM185.652 29.179C184.697 29.179 183.847 29.0149 183.101 28.6868C182.36 28.3544 181.774 27.8984 181.344 27.3189C180.917 26.7351 180.698 26.0618 180.685 25.299H183.472C183.489 25.6186 183.594 25.8999 183.785 26.1428C183.981 26.3814 184.241 26.5668 184.565 26.6989C184.889 26.831 185.253 26.897 185.658 26.897C186.08 26.897 186.453 26.8224 186.777 26.6733C187.101 26.5241 187.354 26.3175 187.537 26.0533C187.721 25.7891 187.812 25.4844 187.812 25.1392C187.812 24.7898 187.714 24.4808 187.518 24.2124C187.327 23.9396 187.05 23.7266 186.687 23.5732C186.329 23.4197 185.903 23.343 185.409 23.343H184.188V21.3104H185.409C185.827 21.3104 186.195 21.2379 186.515 21.093C186.839 20.9482 187.09 20.7479 187.269 20.4922C187.448 20.2322 187.537 19.9297 187.537 19.5845C187.537 19.2564 187.459 18.9688 187.301 18.7216C187.148 18.4702 186.93 18.2741 186.649 18.1335C186.372 17.9929 186.048 17.9226 185.677 17.9226C185.302 17.9226 184.959 17.9908 184.648 18.1271C184.337 18.2592 184.088 18.4489 183.9 18.696C183.713 18.9432 183.613 19.233 183.6 19.5653H180.947C180.96 18.8111 181.175 18.1463 181.593 17.571C182.01 16.9957 182.573 16.5462 183.28 16.2223C183.992 15.8942 184.795 15.7301 185.69 15.7301C186.594 15.7301 187.384 15.8942 188.062 16.2223C188.739 16.5504 189.265 16.9936 189.64 17.5518C190.02 18.1058 190.207 18.728 190.203 19.4183C190.207 20.1513 189.979 20.7628 189.519 21.2528C189.063 21.7429 188.469 22.054 187.736 22.1861V22.2884C188.699 22.4119 189.432 22.7464 189.934 23.2919C190.442 23.8331 190.693 24.5107 190.689 25.3246C190.693 26.0703 190.478 26.733 190.043 27.3125C189.613 27.892 189.018 28.348 188.26 28.6804C187.501 29.0128 186.632 29.179 185.652 29.179Z" fill="#224722"/>
<defs>
<clipPath id="clip0_1_160">
<rect width="24" height="24" fill="white" transform="translate(24.7656 11)"/>
</clipPath>
</defs>
</svg>
