<svg width="156" height="67" viewBox="0 0 156 67" fill="none" xmlns="http://www.w3.org/2000/svg">
<g clip-path="url(#clip0_1_22)">
<path d="M150.222 11.4978C152.897 11.4978 155.074 13.6202 155.074 16.2284V50.0284C155.074 52.6367 152.897 54.7591 150.222 54.7591H5.77778C3.10267 54.7591 0.925889 52.6367 0.925889 50.0284V16.2284C0.925889 13.6202 3.10267 11.4978 5.77778 11.4978H150.222ZM150.222 10.5951H5.77778C2.60145 10.5951 0 13.1315 0 16.2284V50.0284C0 53.1254 2.60145 55.6618 5.77778 55.6618H150.222C153.399 55.6618 156 53.1254 156 50.0284V16.2284C156 13.1315 153.399 10.5951 150.222 10.5951Z" fill="#224722"/>
<path d="M34.8154 32.8852C34.7818 29.254 37.8648 27.4873 38.0058 27.4051C36.2597 24.9231 33.5535 24.584 32.6024 24.5569C30.3295 24.3236 28.1247 25.883 26.9668 25.883C25.7858 25.883 24.0028 24.5794 22.0811 24.6178C19.6082 24.6549 17.2948 26.0509 16.026 28.2185C13.4075 32.6384 15.3604 39.1337 17.8691 42.7063C19.124 44.456 20.5904 46.4097 22.5098 46.341C24.3876 46.2655 25.089 45.1737 27.3551 45.1737C29.6003 45.1737 30.2589 46.341 32.2165 46.2971C34.2317 46.2655 35.5005 44.5395 36.7116 42.7739C38.1618 40.7685 38.7442 38.7935 38.7674 38.6921C38.7199 38.6762 34.8535 37.2376 34.8154 32.8852Z" fill="#224722"/>
<path d="M31.1175 22.2067C32.1275 20.9752 32.8186 19.2999 32.6267 17.5997C31.165 17.6628 29.3368 18.5856 28.2842 19.79C27.3527 20.8513 26.5207 22.5909 26.7357 24.2268C28.3778 24.3463 30.0637 23.4189 31.1175 22.2067Z" fill="#224722"/>
<path d="M61.9894 46.0894H59.3652L57.9276 41.6853H52.931L51.5617 46.0894H49.0068L53.9572 31.0957H57.0148L61.9894 46.0894ZM57.4943 39.8375L56.1943 35.9223C56.0569 35.5224 55.7991 34.5804 55.419 33.0978H55.3727C55.2214 33.7354 54.9775 34.6774 54.6425 35.9223L53.3655 39.8375H57.4943Z" fill="#224722"/>
<path d="M74.72 40.5508C74.72 42.3895 74.2104 43.8429 73.1912 44.9099C72.2783 45.8596 71.1447 46.334 69.7916 46.334C68.331 46.334 67.2817 45.8225 66.6427 44.7995H66.5964V50.4948H64.1328V38.8372C64.1328 37.6812 64.1016 36.4948 64.0415 35.278H66.2081L66.3457 36.9917H66.3919C67.2135 35.7006 68.4604 35.056 70.1336 35.056C71.4417 35.056 72.5337 35.5597 73.4073 36.5681C74.2832 37.5775 74.72 38.9048 74.72 40.5508ZM72.2102 40.6387C72.2102 39.5863 71.9675 38.7188 71.4798 38.0361C70.9471 37.3241 70.2318 36.968 69.3351 36.968C68.7273 36.968 68.175 37.1664 67.6815 37.5572C67.187 37.9516 66.8633 38.4665 66.712 39.1042C66.6358 39.4016 66.5976 39.645 66.5976 39.8366V41.6392C66.5976 42.4255 66.8449 43.0892 67.3395 43.6311C67.834 44.1731 68.4766 44.4435 69.267 44.4435C70.1948 44.4435 70.9171 44.0942 71.4336 43.3979C71.9513 42.7005 72.2102 41.7811 72.2102 40.6387Z" fill="#224722"/>
<path d="M87.4734 40.5508C87.4734 42.3895 86.9638 43.8429 85.9435 44.9099C85.0318 45.8596 83.8982 46.334 82.5449 46.334C81.0843 46.334 80.0351 45.8225 79.3972 44.7995H79.351V50.4948H76.8873V38.8372C76.8873 37.6812 76.8561 36.4948 76.7961 35.278H78.9627L79.1003 36.9917H79.1465C79.967 35.7006 81.2137 35.056 82.8881 35.056C84.1951 35.056 85.2871 35.5597 86.163 36.5681C87.0355 37.5775 87.4734 38.9048 87.4734 40.5508ZM84.9635 40.6387C84.9635 39.5863 84.7198 38.7188 84.2321 38.0361C83.6993 37.3241 82.9864 36.968 82.0886 36.968C81.4795 36.968 80.9283 37.1664 80.4337 37.5572C79.9392 37.9516 79.6168 38.4665 79.4654 39.1042C79.3903 39.4016 79.351 39.645 79.351 39.8366V41.6392C79.351 42.4255 79.5983 43.0892 80.0905 43.6311C80.5851 44.1719 81.2276 44.4435 82.0203 44.4435C82.9483 44.4435 83.6705 44.0942 84.187 43.3979C84.7047 42.7005 84.9635 41.7811 84.9635 40.6387Z" fill="#224722"/>
<path d="M101.733 41.885C101.733 43.1604 101.279 44.198 100.367 44.999C99.3654 45.8745 97.9707 46.3117 96.1785 46.3117C94.5236 46.3117 93.1971 46.0007 92.1929 45.3777L92.7638 43.3755C93.8454 44.0133 95.0321 44.3332 96.3252 44.3332C97.2531 44.3332 97.9753 44.1282 98.4942 43.7203C99.0107 43.3124 99.2684 42.7649 99.2684 42.0821C99.2684 41.4737 99.0558 40.9611 98.6294 40.5454C98.2052 40.1296 97.4969 39.7432 96.5078 39.386C93.8153 38.4069 92.4702 36.9727 92.4702 35.0866C92.4702 33.8541 92.9417 32.8434 93.8858 32.057C94.8265 31.2694 96.0814 30.8763 97.6505 30.8763C99.05 30.8763 100.212 31.1141 101.14 31.5884L100.524 33.5465C99.6578 33.0868 98.6779 32.8569 97.5812 32.8569C96.7145 32.8569 96.0374 33.0654 95.5521 33.4801C95.1419 33.8507 94.9361 34.3025 94.9361 34.8376C94.9361 35.4303 95.1708 35.9203 95.6422 36.3056C96.0524 36.6617 96.7977 37.047 97.8793 37.4628C99.2025 37.9821 100.174 38.5894 100.8 39.2857C101.422 39.9798 101.733 40.8485 101.733 41.885Z" fill="#224722"/>
<path d="M109.879 37.0807H107.164V42.3298C107.164 43.6649 107.642 44.3318 108.601 44.3318C109.041 44.3318 109.407 44.2947 109.695 44.2203L109.764 46.0444C109.278 46.2213 108.639 46.3103 107.848 46.3103C106.875 46.3103 106.114 46.0207 105.566 45.4428C105.019 44.8636 104.744 43.8924 104.744 42.5281V37.0783H103.126V35.2757H104.744V33.2962L107.164 32.5842V35.2757H109.879V37.0807Z" fill="#224722"/>
<path d="M122.131 40.5949C122.131 42.2567 121.643 43.621 120.67 44.688C119.65 45.7865 118.296 46.3341 116.607 46.3341C114.98 46.3341 113.685 45.8079 112.719 44.7556C111.753 43.7034 111.27 42.375 111.27 40.774C111.27 39.0986 111.767 37.7263 112.764 36.6593C113.759 35.5914 115.102 35.0573 116.79 35.0573C118.417 35.0573 119.726 35.5834 120.714 36.6368C121.659 37.6587 122.131 38.9781 122.131 40.5949ZM119.575 40.6726C119.575 39.6755 119.356 38.8203 118.914 38.1072C118.397 37.2441 117.659 36.8137 116.702 36.8137C115.712 36.8137 114.959 37.2452 114.443 38.1072C114 38.8214 113.782 39.6901 113.782 40.7177C113.782 41.7147 114 42.5699 114.443 43.2819C114.976 44.145 115.72 44.5754 116.68 44.5754C117.621 44.5754 118.359 44.136 118.892 43.2594C119.346 42.5327 119.575 41.6686 119.575 40.6726Z" fill="#224722"/>
<path d="M130.14 37.3906C129.896 37.3466 129.636 37.3241 129.364 37.3241C128.497 37.3241 127.826 37.6429 127.354 38.2818C126.944 38.8451 126.739 39.5571 126.739 40.4167V46.0896H124.276L124.3 38.6828C124.3 37.4368 124.269 36.3022 124.207 35.2791H126.353L126.443 37.3477H126.511C126.771 36.6368 127.181 36.0645 127.743 35.6352C128.291 35.2487 128.884 35.056 129.523 35.056C129.751 35.056 129.957 35.0719 130.14 35.1V37.3906Z" fill="#224722"/>
<path d="M141.158 40.1723C141.158 40.6027 141.128 40.9654 141.067 41.2617H133.676C133.706 42.3298 134.062 43.1467 134.749 43.71C135.372 44.2136 136.177 44.466 137.166 44.466C138.261 44.466 139.258 44.2959 140.157 43.9544L140.542 45.6219C139.494 46.0681 138.254 46.2901 136.826 46.2901C135.106 46.2901 133.756 45.7966 132.775 44.8107C131.794 43.8249 131.302 42.501 131.302 40.8404C131.302 39.2101 131.759 37.8525 132.673 36.7698C133.63 35.6138 134.923 35.0358 136.551 35.0358C138.148 35.0358 139.359 35.6138 140.18 36.7698C140.831 37.688 141.158 38.8237 141.158 40.1723ZM138.808 39.5492C138.824 38.8372 138.664 38.2221 138.33 37.7026C137.904 37.0345 137.248 36.7011 136.366 36.7011C135.562 36.7011 134.907 37.0266 134.405 37.68C133.995 38.1995 133.751 38.8225 133.676 39.5481H138.808V39.5492Z" fill="#224722"/>
<path d="M56.6801 21.8719C56.6801 23.1979 56.2723 24.1962 55.4576 24.8665C54.703 25.485 53.6307 25.7949 52.2417 25.7949C51.5529 25.7949 50.9636 25.7656 50.4702 25.707V18.4615C51.1139 18.3601 51.8072 18.3082 52.556 18.3082C53.8791 18.3082 54.8763 18.5888 55.5489 19.1498C56.3023 19.7842 56.6801 20.6911 56.6801 21.8719ZM55.4033 21.9045C55.4033 21.0449 55.1699 20.3858 54.703 19.9261C54.2361 19.4676 53.5544 19.2377 52.6566 19.2377C52.2752 19.2377 51.9505 19.2625 51.6812 19.3143V24.8227C51.8303 24.8452 52.103 24.8552 52.4993 24.8552C53.4262 24.8552 54.1414 24.604 54.6452 24.1016C55.1491 23.5991 55.4033 22.8667 55.4033 21.9045Z" fill="#224722"/>
<path d="M63.4513 23.0299C63.4513 23.8468 63.2121 24.516 62.7337 25.0411C62.2322 25.5808 61.5677 25.8499 60.7381 25.8499C59.9384 25.8499 59.3017 25.592 58.8267 25.0738C58.353 24.5566 58.1161 23.9043 58.1161 23.1178C58.1161 22.2954 58.36 21.6205 58.8499 21.0966C59.3398 20.5727 59.9985 20.3102 60.8282 20.3102C61.6278 20.3102 62.2704 20.5682 62.7568 21.0853C63.219 21.5878 63.4513 22.2368 63.4513 23.0299ZM62.1952 23.0683C62.1952 22.5782 62.0866 22.1579 61.8705 21.8075C61.6163 21.3839 61.2546 21.1721 60.7843 21.1721C60.2978 21.1721 59.928 21.3839 59.6738 21.8075C59.4565 22.1579 59.3491 22.5849 59.3491 23.0896C59.3491 23.5798 59.4577 24 59.6738 24.3504C59.9361 24.774 60.3013 24.9859 60.7728 24.9859C61.2349 24.9859 61.5978 24.7707 61.8589 24.3391C62.0832 23.982 62.1952 23.5583 62.1952 23.0683Z" fill="#224722"/>
<path d="M72.5288 20.4187L70.8244 25.7298H69.715L69.0089 23.4235C68.8299 22.8478 68.6843 22.2754 68.571 21.7076H68.5491C68.4439 22.2912 68.2983 22.8624 68.1111 23.4235L67.3612 25.7298H66.2391L64.6364 20.4187H65.8809L66.4968 22.9436C66.6459 23.5406 66.7684 24.1097 66.8665 24.6482H66.8886C66.9787 24.2043 67.1278 23.6387 67.338 22.9548L68.1111 20.4198H69.098L69.8387 22.9007C70.0177 23.5057 70.1633 24.0883 70.2755 24.6494H70.3089C70.391 24.1029 70.5147 23.5205 70.6788 22.9007L71.3398 20.4198H72.5288V20.4187Z" fill="#224722"/>
<path d="M78.8075 25.7294H77.5964V22.6875C77.5964 21.7501 77.2313 21.2814 76.4987 21.2814C76.1393 21.2814 75.8492 21.4098 75.624 21.6678C75.4009 21.9258 75.2877 22.23 75.2877 22.5782V25.7283H74.0766V21.936C74.0766 21.4695 74.0616 20.9637 74.0328 20.4161H75.097L75.1536 21.2465H75.1872C75.3281 20.9885 75.5384 20.7755 75.8146 20.6054C76.1427 20.4071 76.5102 20.3068 76.9123 20.3068C77.4208 20.3068 77.8438 20.4668 78.18 20.7879C78.5983 21.1811 78.8075 21.7681 78.8075 22.5478V25.7294Z" fill="#224722"/>
<path d="M82.147 25.7295H80.9371V17.9814H82.147V25.7295Z" fill="#224722"/>
<path d="M89.2755 23.0299C89.2755 23.8468 89.0362 24.516 88.5578 25.0411C88.0563 25.5808 87.3907 25.8499 86.5622 25.8499C85.7614 25.8499 85.1246 25.592 84.6508 25.0738C84.1771 24.5566 83.9402 23.9043 83.9402 23.1178C83.9402 22.2954 84.184 21.6205 84.6739 21.0966C85.164 20.5727 85.8227 20.3102 86.6512 20.3102C87.452 20.3102 88.0933 20.5682 88.5809 21.0853C89.0432 21.5878 89.2755 22.2368 89.2755 23.0299ZM88.0182 23.0683C88.0182 22.5782 87.9096 22.1579 87.6934 21.8075C87.4403 21.3839 87.0775 21.1721 86.6083 21.1721C86.1207 21.1721 85.751 21.3839 85.4979 21.8075C85.2806 22.1579 85.1731 22.5849 85.1731 23.0896C85.1731 23.5798 85.2818 24 85.4979 24.3504C85.7602 24.774 86.1254 24.9859 86.5968 24.9859C87.059 24.9859 87.4208 24.7707 87.6819 24.3391C87.9072 23.982 88.0182 23.5583 88.0182 23.0683Z" fill="#224722"/>
<path d="M95.1372 25.7295H94.0498L93.9597 25.1176H93.9262C93.5541 25.6055 93.0237 25.8499 92.335 25.8499C91.8207 25.8499 91.4047 25.6889 91.0916 25.3689C90.8074 25.0782 90.6652 24.7166 90.6652 24.2873C90.6652 23.6383 90.9426 23.1437 91.5007 22.8012C92.0577 22.4587 92.8412 22.2909 93.85 22.2987V22.1996C93.85 21.4999 93.4732 21.1507 92.7186 21.1507C92.1813 21.1507 91.7076 21.2825 91.2985 21.5439L91.0524 20.7687C91.5585 20.4634 92.1836 20.3102 92.9209 20.3102C94.3445 20.3102 95.0586 21.0425 95.0586 22.5072V24.463C95.0586 24.9937 95.0852 25.4162 95.1372 25.7295ZM93.8799 23.9043V23.0851C92.5442 23.0626 91.8762 23.4198 91.8762 24.1555C91.8762 24.4327 91.9525 24.6399 92.1085 24.7785C92.2645 24.9172 92.4633 24.9859 92.7002 24.9859C92.966 24.9859 93.2143 24.9035 93.4409 24.7402C93.6685 24.5757 93.8084 24.3673 93.8604 24.1115C93.873 24.0541 93.8799 23.9843 93.8799 23.9043Z" fill="#224722"/>
<path d="M102.018 25.7295H100.944L100.887 24.8766H100.853C100.51 25.5256 99.9255 25.8501 99.1039 25.8501C98.4475 25.8501 97.901 25.5988 97.4677 25.0964C97.0343 24.5938 96.8182 23.9415 96.8182 23.1404C96.8182 22.2808 97.0528 21.5845 97.5243 21.0527C97.9807 20.557 98.54 20.3091 99.2056 20.3091C99.9371 20.3091 100.449 20.5491 100.74 21.0302H100.763V17.9814H101.975V24.2987C101.975 24.8158 101.989 25.2924 102.018 25.7295ZM100.763 23.4897V22.6042C100.763 22.4509 100.752 22.327 100.73 22.2324C100.662 21.9484 100.515 21.7096 100.292 21.5169C100.066 21.3243 99.7949 21.2274 99.4818 21.2274C99.0299 21.2274 98.6763 21.402 98.4163 21.7524C98.1587 22.1028 98.028 22.5501 98.028 23.0965C98.028 23.6216 98.1517 24.0475 98.4002 24.3753C98.6624 24.7246 99.016 24.8992 99.4587 24.8992C99.8562 24.8992 100.174 24.7538 100.415 24.462C100.649 24.1927 100.763 23.8683 100.763 23.4897Z" fill="#224722"/>
<path d="M112.376 23.0299C112.376 23.8468 112.137 24.516 111.658 25.0411C111.157 25.5808 110.493 25.8499 109.662 25.8499C108.864 25.8499 108.227 25.592 107.751 25.0738C107.277 24.5566 107.041 23.9043 107.041 23.1178C107.041 22.2954 107.284 21.6205 107.774 21.0966C108.264 20.5727 108.923 20.3102 109.754 20.3102C110.552 20.3102 111.196 20.5682 111.681 21.0853C112.143 21.5878 112.376 22.2368 112.376 23.0299ZM111.121 23.0683C111.121 22.5782 111.012 22.1579 110.796 21.8075C110.541 21.3839 110.18 21.1721 109.709 21.1721C109.223 21.1721 108.854 21.3839 108.598 21.8075C108.381 22.1579 108.274 22.5849 108.274 23.0896C108.274 23.5798 108.382 24 108.598 24.3504C108.861 24.774 109.226 24.9859 109.697 24.9859C110.159 24.9859 110.523 24.7707 110.785 24.3391C111.008 23.982 111.121 23.5583 111.121 23.0683Z" fill="#224722"/>
<path d="M118.888 25.7294H117.678V22.6875C117.678 21.7501 117.313 21.2814 116.579 21.2814C116.22 21.2814 115.93 21.4098 115.705 21.6678C115.481 21.9258 115.369 22.23 115.369 22.5782V25.7283H114.157V21.936C114.157 21.4695 114.143 20.9637 114.114 20.4161H115.177L115.234 21.2465H115.268C115.41 20.9885 115.62 20.7755 115.895 20.6054C116.224 20.4071 116.591 20.3068 116.994 20.3068C117.501 20.3068 117.924 20.4668 118.26 20.7879C118.68 21.1811 118.888 21.7681 118.888 22.5478V25.7294Z" fill="#224722"/>
<path d="M127.038 21.3028H125.705V23.8828C125.705 24.5385 125.942 24.8664 126.411 24.8664C126.627 24.8664 126.808 24.8484 126.951 24.8113L126.982 25.7069C126.743 25.7948 126.428 25.8388 126.041 25.8388C125.563 25.8388 125.19 25.6968 124.921 25.4129C124.65 25.129 124.516 24.6512 124.516 23.9809V21.3028H123.72V20.4183H124.516V19.4449L125.704 19.0956V20.4172H127.037V21.3028H127.038Z" fill="#224722"/>
<path d="M133.448 25.7295H132.236V22.7101C132.236 21.758 131.871 21.2815 131.139 21.2815C130.578 21.2815 130.194 21.5575 129.984 22.1096C129.948 22.2256 129.927 22.3676 129.927 22.5343V25.7284H128.717V17.9814H129.927V21.1823H129.95C130.332 20.5998 130.878 20.3091 131.586 20.3091C132.089 20.3091 132.503 20.4691 132.833 20.7902C133.243 21.1902 133.448 21.7851 133.448 22.5715V25.7295Z" fill="#224722"/>
<path d="M140.062 22.8228C140.062 23.0346 140.046 23.2126 140.017 23.358H136.385C136.401 23.8829 136.574 24.283 136.911 24.5601C137.218 24.8079 137.614 24.9319 138.1 24.9319C138.637 24.9319 139.127 24.8485 139.568 24.6807L139.757 25.5009C139.241 25.7194 138.633 25.8287 137.93 25.8287C137.087 25.8287 136.422 25.5864 135.942 25.102C135.459 24.6175 135.219 23.9675 135.219 23.1517C135.219 22.3507 135.441 21.6837 135.892 21.1519C136.36 20.5841 136.995 20.3002 137.796 20.3002C138.579 20.3002 139.174 20.5841 139.577 21.1519C139.901 21.6026 140.062 22.1603 140.062 22.8228ZM138.907 22.5175C138.916 22.1671 138.836 21.8651 138.672 21.6105C138.461 21.2826 138.142 21.1181 137.708 21.1181C137.313 21.1181 136.99 21.2781 136.744 21.5992C136.543 21.855 136.424 22.1603 136.385 22.5175H138.907Z" fill="#224722"/>
</g>
<defs>
<clipPath id="clip0_1_22">
<rect width="156" height="45.8095" fill="white" transform="translate(0 10.5952)"/>
</clipPath>
</defs>
</svg>
