<svg width="156" height="67" viewBox="0 0 156 67" fill="none" xmlns="http://www.w3.org/2000/svg">
<g clip-path="url(#clip0_1_49)">
<path d="M150.016 11.4978C152.687 11.4978 154.861 13.6202 154.861 16.2284V50.0284C154.861 52.6367 152.687 54.7591 150.016 54.7591H5.76983C3.09841 54.7591 0.924616 52.6367 0.924616 50.0284V16.2284C0.924616 13.6202 3.09841 11.4978 5.76983 11.4978H150.016ZM150.016 10.5951H5.76983C2.59787 10.5951 0 13.1315 0 16.2284V50.0284C0 53.1254 2.59787 55.6617 5.76983 55.6617H150.016C153.188 55.6617 155.786 53.1254 155.786 50.0284V16.2284C155.786 13.1315 153.188 10.5951 150.016 10.5951Z" fill="#224722"/>
<path d="M54.7179 22.1367C54.7179 23.0774 54.4294 23.8309 53.8611 24.3929C53.2077 25.059 52.3566 25.3941 51.3137 25.3941C50.317 25.3941 49.4659 25.0533 48.7678 24.3816C48.0682 23.6999 47.7192 22.8634 47.7192 21.8621C47.7192 20.8607 48.0682 20.0242 48.7678 19.3482C49.4659 18.6708 50.317 18.33 51.3137 18.33C51.81 18.33 52.283 18.43 52.7346 18.6159C53.1846 18.8032 53.551 19.0567 53.8164 19.3693L53.2135 19.9636C52.7504 19.4299 52.1201 19.1665 51.3137 19.1665C50.5867 19.1665 49.9564 19.4144 49.4212 19.9143C48.8919 20.4157 48.6265 21.0649 48.6265 21.8621C48.6265 22.6592 48.8919 23.314 49.4212 23.8154C49.9564 24.3097 50.5867 24.5633 51.3137 24.5633C52.0854 24.5633 52.7346 24.3097 53.2467 23.8098C53.5842 23.4788 53.7761 23.0226 53.8265 22.4395H51.3137V21.6255H54.666C54.7064 21.8015 54.7179 21.9719 54.7179 22.1367Z" fill="#224722"/>
<path d="M60.0367 19.3143H56.8879V21.4549H59.7267V22.2689H56.8879V24.4096H60.0367V25.2392H55.9965V18.4847H60.0367V19.3143Z" fill="#224722"/>
<path d="M63.7891 25.2392H62.8977V19.3143H60.9662V18.4847H65.722V19.3143H63.7891V25.2392Z" fill="#224722"/>
<path d="M69.1641 25.2392V18.4847H70.054V25.2392H69.1641Z" fill="#224722"/>
<path d="M73.9996 25.2392H73.1153V19.3143H71.1767V18.4847H75.9383V19.3143H73.9996V25.2392Z" fill="#224722"/>
<path d="M84.942 24.3704C84.2597 25.0533 83.4144 25.3941 82.4061 25.3941C81.3921 25.3941 80.5468 25.0533 79.8646 24.3704C79.1836 23.6887 78.8448 22.8521 78.8448 21.8621C78.8448 20.872 79.1836 20.0355 79.8646 19.3538C80.5468 18.6708 81.3921 18.33 82.4061 18.33C83.4086 18.33 84.2539 18.6708 84.9362 19.3595C85.6228 20.0467 85.9618 20.8776 85.9618 21.8621C85.9618 22.8521 85.6228 23.6887 84.942 24.3704ZM80.5237 23.8042C81.0372 24.3097 81.6618 24.5633 82.4061 24.5633C83.1447 24.5633 83.775 24.3097 84.2827 23.8042C84.7948 23.2985 85.0544 22.6493 85.0544 21.8621C85.0544 21.0748 84.7948 20.4256 84.2827 19.92C83.775 19.4144 83.1447 19.1609 82.4061 19.1609C81.6618 19.1609 81.0372 19.4144 80.5237 19.92C80.0117 20.4256 79.752 21.0748 79.752 21.8621C79.752 22.6493 80.0117 23.2985 80.5237 23.8042Z" fill="#224722"/>
<path d="M87.2117 25.2392V18.4847H88.2935L91.6573 23.7378H91.6963L91.6573 22.4393V18.4847H92.5474V25.2392H91.6184L88.0959 19.7269H88.0569L88.0959 21.031V25.2392H87.2117Z" fill="#224722"/>
<path d="M78.6252 35.103C75.9148 35.103 73.7007 37.1169 73.7007 39.8956C73.7007 42.6516 75.9148 44.6867 78.6252 44.6867C81.3414 44.6867 83.5556 42.6516 83.5556 39.8956C83.5556 37.1169 81.3414 35.103 78.6252 35.103ZM78.6252 42.7995C77.138 42.7995 75.8586 41.6011 75.8586 39.8956C75.8586 38.1676 77.138 36.9902 78.6252 36.9902C80.1124 36.9902 81.3976 38.1676 81.3976 39.8956C81.3976 41.6011 80.1124 42.7995 78.6252 42.7995ZM67.8803 35.103C65.1642 35.103 62.9558 37.1169 62.9558 39.8956C62.9558 42.6516 65.1642 44.6867 67.8803 44.6867C70.5951 44.6867 72.8049 42.6516 72.8049 39.8956C72.8049 37.1169 70.5951 35.103 67.8803 35.103ZM67.8803 42.7995C66.3917 42.7995 65.108 41.6011 65.108 39.8956C65.108 38.1676 66.3917 36.9902 67.8803 36.9902C69.3675 36.9902 70.6469 38.1676 70.6469 39.8956C70.6469 41.6011 69.3675 42.7995 67.8803 42.7995ZM55.0944 36.5719V38.6083H60.0752C59.9295 39.7463 59.54 40.5829 58.9429 41.1659C58.2158 41.87 57.0835 42.6516 55.0944 42.6516C52.0292 42.6516 49.6289 40.2363 49.6289 37.2437C49.6289 34.251 52.0292 31.8357 55.0944 31.8357C56.7518 31.8357 57.9577 32.468 58.8476 33.2876L60.3175 31.8526C59.0727 30.6921 57.4168 29.8007 55.0944 29.8007C50.891 29.8007 47.3585 33.1398 47.3585 37.2437C47.3585 41.3475 50.891 44.6867 55.0944 44.6867C57.3663 44.6867 59.0727 43.96 60.4142 42.5967C61.7889 41.2545 62.2172 39.3674 62.2172 37.8436C62.2172 37.3704 62.1769 36.9352 62.1047 36.5719H55.0944ZM107.378 38.1506C106.972 37.0789 105.722 35.103 103.174 35.103C100.65 35.103 98.5484 37.0451 98.5484 39.8956C98.5484 42.5798 100.629 44.6867 103.417 44.6867C105.671 44.6867 106.972 43.3446 107.508 42.5629L105.834 41.4743C105.276 42.2714 104.516 42.7995 103.417 42.7995C102.325 42.7995 101.542 42.3109 101.04 41.3475L107.604 38.6956L107.378 38.1506ZM100.685 39.7463C100.629 37.8985 102.155 36.9521 103.248 36.9521C104.105 36.9521 104.832 37.3704 105.074 37.969L100.685 39.7463ZM95.349 44.3952H97.507V30.3119H95.349V44.3952ZM91.815 36.1705H91.743C91.2583 35.61 90.3336 35.103 89.1624 35.103C86.7044 35.103 84.457 37.2099 84.457 39.9111C84.457 42.5967 86.7044 44.6867 89.1624 44.6867C90.3336 44.6867 91.2583 44.1754 91.743 43.598H91.815V44.2853C91.815 46.1175 90.8125 47.1019 89.1956 47.1019C87.8771 47.1019 87.0593 46.1725 86.7218 45.3909L84.845 46.1555C85.386 47.4259 86.8183 48.9892 89.1956 48.9892C91.7256 48.9892 93.8605 47.5358 93.8605 43.9994V35.3945H91.815V36.1705ZM89.347 42.7995C87.8598 42.7995 86.615 41.5841 86.615 39.9111C86.615 38.2224 87.8598 36.9902 89.347 36.9902C90.8125 36.9902 91.9679 38.2224 91.9679 39.9111C91.9679 41.5841 90.8125 42.7995 89.347 42.7995ZM117.481 30.3119H112.32V44.3952H114.472V39.059H117.481C119.871 39.059 122.215 37.3704 122.215 34.6847C122.215 32.0004 119.865 30.3119 117.481 30.3119ZM117.537 37.1H114.472V32.2708H117.537C119.144 32.2708 120.061 33.5735 120.061 34.6847C120.061 35.7747 119.144 37.1 117.537 37.1ZM130.841 35.0762C129.286 35.0762 127.669 35.7466 127.004 37.2323L128.914 38.0141C129.325 37.2323 130.08 36.9789 130.88 36.9789C131.996 36.9789 133.129 37.6337 133.146 38.79V38.9379C132.756 38.7182 131.923 38.3929 130.898 38.3929C128.84 38.3929 126.744 39.4984 126.744 41.5616C126.744 43.4488 128.429 44.6641 130.323 44.6641C131.772 44.6641 132.57 44.0261 133.072 43.284H133.146V44.3727H135.225V38.9702C135.225 36.4733 133.314 35.0762 130.841 35.0762ZM130.581 42.7938C129.877 42.7938 128.897 42.4531 128.897 41.6011C128.897 40.511 130.12 40.0927 131.179 40.0927C132.126 40.0927 132.57 40.2969 133.146 40.5659C132.978 41.87 131.827 42.7938 130.581 42.7938ZM142.797 35.3846L140.323 41.4898H140.25L137.692 35.3846H135.372L139.214 43.9163L137.021 48.6638H139.271L145.191 35.3846H142.797ZM123.398 44.3952H125.555V30.3119H123.398V44.3952Z" fill="#224722"/>
<path d="M12.0422 19.0889C11.7033 19.4353 11.5071 19.9747 11.5071 20.6733V45.5895C11.5071 46.288 11.7033 46.8275 12.0422 47.1739L12.1259 47.2499L26.4264 33.2933V32.9638L12.1259 19.0072L12.0422 19.0889Z" fill="#224722"/>
<path d="M31.1881 37.9478L26.4265 33.2933V32.9638L31.1938 28.3093L31.3005 28.3698L36.9464 31.5062C38.5576 32.3962 38.5576 33.8609 36.9464 34.7566L31.3005 37.8873L31.1881 37.9478Z" fill="#224722"/>
<path d="M31.3003 37.8874L26.4262 33.1287L12.042 47.174C12.5771 47.7232 13.4498 47.7894 14.4423 47.2401L31.3003 37.8874Z" fill="#224722"/>
<path d="M31.3003 28.3697L14.4423 19.017C13.4498 18.4733 12.5771 18.5395 12.042 19.0888L26.4262 33.1285L31.3003 28.3697Z" fill="#224722"/>
</g>
<defs>
<clipPath id="clip0_1_49">
<rect width="156" height="45.8095" fill="white" transform="translate(0 10.5952)"/>
</clipPath>
</defs>
</svg>
