<svg width="107" height="30" viewBox="0 0 107 30" fill="none" xmlns="http://www.w3.org/2000/svg">
<g clip-path="url(#clip0_1_8)">
<mask id="mask0_1_8" style="mask-type:alpha" maskUnits="userSpaceOnUse" x="0" y="0" width="107" height="30">
<path d="M0.764099 0.5H106.764V29.26H0.764099V0.5Z" fill="white"/>
</mask>
<g mask="url(#mask0_1_8)">
<path d="M24.3641 0.5H29.3901V28.685H24.3641V0.5ZM32.9991 14.153C33.1458 13.2619 33.4456 12.4029 33.8851 11.614C34.3391 10.7785 34.9208 10.019 35.6091 9.363C36.3181 8.676 37.2191 8.117 38.3151 7.718C39.4111 7.303 40.6191 7.111 41.9401 7.111C43.5831 7.111 45.0171 7.335 46.2091 7.798C47.4011 8.245 48.3351 8.9 49.0121 9.73C49.677 10.5461 50.1751 11.4849 50.4781 12.493C50.7841 13.515 50.9291 14.649 50.9291 15.91V23.719C50.9291 25.731 51.0421 27.392 51.2831 28.701H46.2571C46.1441 28.014 46.0971 27.248 46.0971 26.386V25.38H46.0641C44.8561 27.983 42.6331 29.276 39.3941 29.276C37.1241 29.276 35.3191 28.669 33.9981 27.471C32.6781 26.258 32.0171 24.773 32.0171 22.984C32.0171 22.25 32.1291 21.563 32.3711 20.94C32.6131 20.317 32.9031 19.806 33.2731 19.375C33.6703 18.9241 34.1385 18.541 34.6591 18.241C35.1708 17.9274 35.7097 17.6603 36.2691 17.443C36.7691 17.251 37.3651 17.06 38.0581 16.9C38.7501 16.74 39.3141 16.613 39.7651 16.549C40.2161 16.469 40.7481 16.405 41.3441 16.325C41.6821 16.293 41.9241 16.245 42.0691 16.23C43.5191 16.022 44.5491 15.734 45.1461 15.367C45.7421 15 46.0481 14.409 46.0481 13.563C46.0481 12.733 45.6931 12.078 44.9851 11.598C44.2751 11.119 43.2931 10.88 42.0371 10.88C40.9411 10.88 40.0231 11.167 39.2501 11.758C38.4761 12.349 37.9771 13.148 37.7031 14.17H32.9991V14.153ZM37.9771 20.828C37.2841 21.308 36.9461 21.962 36.9461 22.777C36.9461 23.591 37.2841 24.262 37.9451 24.773C38.6051 25.283 39.5401 25.539 40.7151 25.539C41.4411 25.539 42.1171 25.427 42.7451 25.188C43.3837 24.9486 43.9654 24.5787 44.4531 24.102C44.9691 23.607 45.3711 22.92 45.6771 22.058C45.9671 21.18 46.1121 20.158 46.1121 18.976V17.044C45.8381 17.651 45.3221 18.178 44.5981 18.609C43.8731 19.04 42.7291 19.407 41.1981 19.711C39.7491 19.966 38.6701 20.349 37.9771 20.828ZM54.0381 28.685V7.735H58.9511V11.391C60.2721 8.581 62.3821 7.175 65.2821 7.175C67.8921 7.175 69.8091 7.942 71.0331 9.475C72.2571 11.008 72.8861 13.084 72.8861 15.719V28.669H67.9401V16.836C67.9401 13.243 66.6201 11.455 63.9931 11.455C62.4951 11.455 61.3191 12.11 60.4171 13.403C59.5311 14.697 59.0801 16.613 59.0801 19.103V28.653H54.0381V28.685ZM81.9881 21.148C81.9881 22.393 82.1811 23.319 82.5841 23.91C82.9711 24.5 83.6961 24.788 84.7271 24.788H86.0801V28.765H83.6631C82.4391 28.78 81.3921 28.621 80.5221 28.285C79.6521 27.95 78.9761 27.471 78.4761 26.816C77.9707 26.1646 77.6085 25.414 77.4131 24.613C77.1871 23.798 77.0911 22.856 77.0911 21.786V11.55H74.6101V7.734H77.0901V1.889H82.0041V7.734H86.1761V11.55H82.0041V21.148H81.9881ZM88.4641 14.153C88.6105 13.262 88.9099 12.403 89.3491 11.614C89.8031 10.7785 90.3848 10.0191 91.0731 9.363C91.7821 8.676 92.6841 8.117 93.7801 7.718C94.8751 7.303 96.0831 7.111 97.4041 7.111C99.0471 7.111 100.481 7.335 101.673 7.798C102.865 8.245 103.8 8.9 104.476 9.73C105.141 10.546 105.639 11.4848 105.942 12.493C106.248 13.515 106.393 14.649 106.393 15.91V23.719C106.393 25.731 106.506 27.392 106.748 28.701H101.722C101.609 28.014 101.56 27.248 101.56 26.386V25.38H101.528C100.32 27.983 98.0971 29.276 94.8581 29.276C92.5881 29.276 90.7831 28.669 89.4621 27.471C88.1421 26.258 87.4811 24.773 87.4811 22.984C87.4811 22.25 87.5941 21.563 87.8351 20.94C88.0771 20.317 88.3671 19.806 88.7371 19.375C89.1343 18.9241 89.6025 18.541 90.1231 18.241C90.6348 17.9274 91.1737 17.6604 91.7331 17.443C92.2331 17.251 92.8291 17.06 93.5221 16.9C94.2151 16.74 94.7781 16.613 95.2291 16.549C95.6801 16.469 96.2121 16.405 96.8091 16.325C97.1461 16.293 97.3891 16.245 97.5331 16.23C98.9831 16.022 100.013 15.734 100.61 15.367C101.206 15 101.512 14.409 101.512 13.563C101.512 12.733 101.158 12.078 100.449 11.598C99.7401 11.119 98.7571 10.88 97.5011 10.88C96.4051 10.88 95.4871 11.167 94.7141 11.758C93.9411 12.349 93.4411 13.148 93.1671 14.17H88.4641V14.153ZM93.4411 20.828C92.7491 21.308 92.4111 21.962 92.4111 22.777C92.4111 23.591 92.7491 24.262 93.4091 24.773C94.0691 25.283 95.0041 25.539 96.1791 25.539C96.9051 25.539 97.5811 25.427 98.2091 25.188C98.8477 24.9486 99.4294 24.5787 99.9171 24.102C100.433 23.607 100.836 22.92 101.142 22.058C101.432 21.18 101.577 20.158 101.577 18.976V17.044C101.303 17.651 100.787 18.178 100.062 18.609C99.3371 19.04 98.1941 19.407 96.6631 19.711C95.1971 19.966 94.1181 20.349 93.4411 20.828ZM18.9041 3.023C16.9691 1.346 14.4081 0.5 11.2181 0.5H0.764099V28.685H1.7631C4.0991 28.685 5.9831 26.801 5.9831 24.501V4.796H10.8001C12.6201 4.796 14.0541 5.195 15.0701 5.977C16.1001 6.776 16.6001 7.941 16.6001 9.522C16.6001 11.087 16.0681 12.301 15.0051 13.132C13.9421 13.962 12.5081 14.392 10.6871 14.392C8.8991 14.392 7.4491 15.83 7.4491 17.602V18.688H11.1221C13.1041 18.688 14.9081 18.289 16.5521 17.475C18.1941 16.676 19.4671 15.558 20.4181 14.153C21.3521 12.748 21.8191 11.167 21.8191 9.443C21.8031 6.84 20.8361 4.7 18.9031 3.023H18.9041Z" fill="#224722"/>
</g>
</g>
<defs>
<clipPath id="clip0_1_8">
<rect width="106" height="29" fill="white" transform="translate(0.764099 0.5)"/>
</clipPath>
</defs>
</svg>
